<?xml version="1.0" standalone="no"?>
<!DOCTYPE svg PUBLIC "-//W3C//DTD SVG 20010904//EN"
 "http://www.w3.org/TR/2001/REC-SVG-20010904/DTD/svg10.dtd">
<svg version="1.0" xmlns="http://www.w3.org/2000/svg"
 width="400.000000pt" height="400.000000pt" viewBox="0 0 400.000000 400.000000"
 preserveAspectRatio="xMidYMid meet">
<metadata>
Created by potrace 1.11, written by Peter Selinger 2001-2013
</metadata>
<g transform="translate(0.000000,400.000000) scale(0.100000,-0.100000)"
fill="#000000" stroke="none">
<path d="M840 3158 c-15 -32 -20 -65 -20 -133 0 -92 14 -170 30 -160 4 3 6 15
2 27 -4 16 -2 19 9 13 12 -8 12 -6 0 8 -11 14 -11 20 0 35 13 15 12 16 -3 3
-16 -12 -18 -11 -18 18 0 24 4 30 18 28 34 -5 43 -17 31 -40 -9 -20 -9 -21 4
-4 10 12 17 14 22 8 9 -16 22 -13 29 5 3 8 2 12 -3 9 -5 -3 -13 0 -17 6 -5 8
-3 9 6 4 9 -5 11 -4 6 4 -4 6 -11 9 -16 6 -4 -3 -14 3 -21 12 -12 15 -12 16 4
10 11 -4 16 -3 12 3 -4 6 -12 10 -18 9 -28 -3 -39 2 -34 15 4 10 1 13 -9 9
-20 -7 -18 26 4 51 13 16 13 18 1 8 -14 -11 -16 -9 -12 13 7 33 31 54 43 36 4
-8 16 -11 28 -7 24 8 67 -28 56 -46 -4 -7 -3 -8 5 -4 6 4 8 13 4 19 -4 6 8 2
27 -10 40 -25 53 -49 22 -39 -12 4 -23 2 -28 -5 -4 -8 -3 -9 4 -5 8 5 12 0 12
-13 0 -12 -5 -21 -11 -21 -5 0 -8 -4 -4 -9 3 -5 1 -12 -4 -16 -6 -3 -8 -13 -5
-23 3 -9 -2 -6 -10 8 -8 14 -15 33 -16 43 0 19 -15 23 -26 6 -4 -8 -9 -7 -15
2 -7 11 -9 11 -9 1 0 -7 7 -15 15 -18 8 -4 15 -14 15 -23 0 -9 8 -33 18 -53
17 -32 17 -36 3 -46 -13 -8 -11 -10 9 -6 l25 5 -25 -11 c-14 -6 -37 -10 -52
-7 -16 2 -28 0 -28 -5 0 -4 -9 -8 -19 -8 -10 0 -22 -7 -25 -16 -5 -14 -8 -14
-28 0 -12 9 -38 16 -56 16 -28 0 -36 -5 -45 -30 -6 -17 -19 -32 -28 -35 -43
-14 -157 -194 -143 -228 3 -9 17 -23 30 -32 l25 -16 -20 -25 c-44 -56 -30
-136 27 -150 15 -4 43 -19 61 -33 19 -14 31 -19 26 -11 -8 13 -7 13 9 1 13
-11 14 -16 4 -23 -9 -7 -4 -8 13 -4 17 4 31 1 39 -8 16 -20 -10 -33 -75 -38
-27 -3 -51 -10 -53 -16 -2 -7 1 -12 6 -12 6 0 19 -3 29 -6 15 -5 15 -4 3 5
-11 7 0 10 40 9 46 0 52 -2 37 -12 -9 -7 -13 -17 -9 -21 4 -5 1 -5 -6 -1 -7 4
-10 13 -6 19 3 7 -1 4 -8 -5 -8 -9 -27 -20 -44 -23 -19 -4 -25 -3 -16 3 11 7
9 11 -9 15 -26 7 -39 1 -38 -16 0 -9 2 -9 6 1 7 17 23 15 23 -3 0 -19 -29 -20
-36 -2 -3 8 1 27 7 43 7 16 14 38 16 49 2 11 11 27 19 35 15 14 15 13 5 -7 -9
-19 -9 -22 3 -17 15 6 15 36 0 41 -19 6 -52 -42 -68 -100 -34 -117 -31 -273 5
-252 5 4 7 10 4 15 -8 12 21 20 75 20 48 0 140 39 183 78 16 14 19 14 27 2 6
-8 10 -22 10 -30 1 -46 68 -190 108 -234 34 -36 117 -76 160 -76 44 0 41 18
-5 26 -21 4 -46 11 -55 16 -24 12 -23 60 2 83 19 17 20 17 34 -17 8 -19 35
-57 59 -84 24 -27 51 -62 60 -79 9 -16 45 -61 81 -100 36 -38 66 -75 66 -82 0
-7 -9 -17 -21 -23 -16 -9 -36 -5 -100 19 -49 19 -99 31 -127 31 -46 0 -51 -4
-177 -116 -71 -63 -130 -123 -130 -132 0 -15 13 -17 128 -15 l129 3 101 74
c120 86 212 140 227 131 24 -15 2 -38 -117 -119 -71 -47 -140 -95 -155 -107
-24 -18 -28 -19 -28 -4 0 9 -5 15 -12 13 -14 -5 -45 -101 -53 -168 -4 -25 -11
-58 -17 -73 -19 -50 -20 -50 177 44 45 21 101 53 125 72 l45 34 -3 105 -4 104
34 26 35 27 66 -92 c93 -129 157 -209 266 -334 52 -59 103 -120 114 -135 20
-27 47 -38 47 -19 0 11 208 227 213 221 2 -3 10 -39 17 -80 13 -79 58 -190 76
-190 6 0 28 15 51 34 l40 35 22 -46 c40 -82 165 -209 154 -155 -2 6 12 42 31
79 18 37 39 84 46 103 7 19 18 40 24 45 6 6 11 30 11 55 0 35 3 44 15 41 8 -2
50 -5 92 -8 l78 -4 21 36 c18 30 26 35 43 30 42 -14 67 -7 105 31 59 60 61 69
51 173 -6 51 -7 97 -4 103 4 5 -3 23 -15 39 l-22 29 48 2 c26 0 53 2 58 2 19
3 130 79 153 105 35 39 82 108 82 120 0 28 -146 105 -247 131 -24 6 -43 13
-43 16 0 3 8 18 19 32 37 54 34 172 -5 172 -17 0 -17 3 2 65 46 146 60 383 30
490 -8 28 -17 59 -20 70 -4 16 10 32 60 73 36 30 68 52 70 49 3 -3 -2 -29 -10
-58 -21 -68 -21 -93 0 -85 8 3 12 2 9 -4 -10 -16 8 -11 30 8 49 43 112 132
157 221 26 52 48 101 48 109 0 7 9 30 20 52 11 21 16 41 11 45 -5 3 -33 -3
-63 -14 -29 -10 -80 -26 -113 -36 -76 -21 -81 -23 -193 -76 -52 -24 -99 -50
-105 -57 -15 -18 8 -32 54 -32 46 0 99 -10 99 -19 0 -11 -117 -91 -132 -91 -7
0 -35 20 -62 45 -63 57 -131 90 -175 86 -20 -2 -31 1 -27 7 4 6 -35 9 -107 7
-162 -3 -267 -43 -442 -167 -50 -35 -95 -67 -101 -71 -6 -3 -28 28 -54 79 -27
53 -57 97 -79 115 -20 16 -58 47 -86 69 -27 22 -86 58 -130 81 -95 48 -159 57
-298 41 -84 -9 -114 -21 -267 -99 -3 -2 -20 28 -39 67 -38 82 -104 145 -196
190 -100 48 -102 48 -125 -2z m253 -117 l31 -30 -26 -10 c-14 -5 -29 -16 -33
-23 -6 -10 -5 -11 6 0 17 16 26 15 26 -3 0 -8 -4 -15 -9 -15 -4 0 -7 -3 -6 -7
1 -5 -2 -30 -7 -56 -8 -49 4 -82 20 -56 6 8 4 10 -5 4 -10 -6 -12 -2 -6 16 3
13 9 36 12 52 4 15 11 27 17 27 6 0 7 3 4 7 -4 3 -2 12 4 20 9 10 8 13 0 13
-7 0 -9 5 -5 12 4 7 16 -6 30 -33 25 -47 29 -63 16 -55 -5 3 -9 -1 -9 -9 0 -8
4 -12 9 -9 4 3 8 1 8 -4 0 -14 -36 -43 -44 -35 -4 4 -4 0 -1 -8 5 -12 -1 -15
-25 -14 -16 1 -31 4 -33 6 -2 2 -18 28 -37 58 -28 45 -31 55 -19 65 8 6 15 22
17 36 1 14 7 27 12 28 6 2 7 8 4 13 -6 11 2 39 11 39 3 0 20 -13 38 -29z
m-233 -26 c11 -13 10 -14 -4 -9 -9 3 -16 10 -16 15 0 13 6 11 20 -6z m2578
-27 c-3 -7 -13 -36 -22 -65 -15 -45 -106 -209 -125 -223 -3 -3 -21 -22 -39
-43 -29 -34 -32 -35 -31 -15 0 13 6 39 13 58 9 25 10 46 3 73 -12 48 -50 67
-132 67 -30 0 -55 4 -55 8 0 10 145 77 208 96 26 8 74 24 107 34 75 24 78 25
73 10z m-2410 -152 c0 -5 6 -13 14 -17 10 -7 10 -9 -2 -9 -9 0 -26 8 -39 17
-18 12 -22 13 -16 2 5 -8 -1 -6 -13 5 -12 10 -19 23 -15 29 5 8 8 7 11 -1 2
-8 8 -7 19 4 14 13 17 13 28 -3 7 -10 13 -22 13 -27z m2182 -49 c0 -2 -39 -37
-87 -78 -118 -102 -284 -212 -298 -198 -13 14 45 64 140 121 39 23 106 68 150
100 70 51 95 66 95 55z m-2272 -209 c21 -21 15 -65 -10 -72 -44 -11 -66 -6
-83 20 -16 24 -16 27 1 45 19 21 73 26 92 7z m605 -118 c50 -12 126 -36 167
-54 41 -19 98 -43 125 -54 28 -10 113 -56 190 -102 205 -120 197 -116 365
-200 175 -87 219 -104 317 -120 37 -7 109 -21 158 -33 50 -11 116 -21 147 -21
32 -1 58 -3 58 -5 0 -12 -61 -104 -115 -175 -116 -150 -285 -252 -398 -241
-148 14 -295 49 -391 95 -33 16 -113 61 -176 99 -258 159 -495 262 -640 280
-147 19 -289 -35 -290 -108 -1 -25 -2 -25 -38 15 -36 40 -81 138 -102 226 -21
82 -41 202 -36 214 7 18 180 119 267 156 115 50 249 59 392 28z m-796 -142
c-3 -8 -6 -5 -6 6 -1 11 2 17 5 13 3 -3 4 -12 1 -19z m99 -116 c3 -20 13 -48
21 -61 14 -22 14 -24 -4 -19 -12 3 -20 0 -20 -7 0 -8 7 -11 16 -8 11 4 9 0 -4
-10 -29 -23 -40 -21 -43 9 -1 14 2 23 6 20 5 -3 9 1 9 9 0 8 -5 11 -10 8 -6
-4 -8 5 -5 20 3 15 2 24 -3 22 -17 -11 -19 16 -3 40 20 31 31 25 40 -23z m-60
-72 c-3 -22 -10 -49 -17 -62 -11 -21 -11 -22 4 -9 10 7 17 9 17 4 0 -5 -11
-15 -25 -21 -23 -11 -25 -10 -17 6 5 9 7 23 5 30 -3 6 0 12 6 12 6 0 9 10 7
23 -2 12 -9 21 -15 19 -7 -1 -5 8 5 23 22 33 36 22 30 -25z m-66 19 c0 -5 -4
-7 -10 -4 -5 3 -10 -1 -10 -9 0 -9 -6 -16 -12 -16 -10 0 -9 -3 1 -9 8 -5 9
-11 3 -15 -6 -3 -10 -16 -9 -27 l1 -21 14 21 c15 22 32 28 32 10 0 -5 -5 -7
-11 -3 -8 5 -10 -1 -5 -19 7 -30 -6 -36 -71 -34 -53 2 -60 10 -38 43 9 15 12
23 5 19 -8 -5 -11 -1 -8 11 2 11 10 18 16 17 7 -2 17 -4 24 -5 7 -2 12 6 13
17 0 12 10 22 25 26 37 10 40 10 40 -2z m-80 -13 c0 -11 -19 -15 -25 -6 -3 5
1 10 9 10 9 0 16 -2 16 -4z m2434 -189 c15 -23 -13 -50 -48 -45 l-26 3 20 33
c21 35 36 37 54 9z m20 -196 c3 -5 15 -7 27 -4 20 6 21 5 5 -26 -19 -36 -27
-40 -21 -11 2 11 0 18 -5 15 -5 -3 -7 -16 -4 -29 6 -34 -65 -92 -81 -66 -4 6
-2 10 4 10 6 0 8 6 5 13 -9 26 34 107 57 107 4 0 10 -4 13 -9z m126 -43 c0 -5
4 -7 9 -3 23 14 18 -16 -5 -34 -30 -23 -69 -29 -59 -8 4 6 0 3 -9 -7 -8 -10
-14 -22 -11 -25 2 -4 -7 -8 -21 -9 -13 -1 -24 1 -24 4 0 5 35 57 58 85 13 17
62 15 62 -3z m-232 -55 c-2 -10 -9 -17 -16 -16 -6 2 -9 -4 -6 -12 4 -9 0 -15
-10 -15 -10 0 -13 6 -9 18 14 39 48 60 41 25z m320 -4 c2 -9 -4 -24 -13 -33
-9 -9 -13 -16 -9 -16 4 0 -3 -11 -16 -25 -12 -13 -26 -22 -31 -20 -4 3 -11 0
-15 -6 -4 -8 -3 -9 4 -5 23 14 11 -9 -14 -27 -25 -19 -25 -19 -31 2 -3 12 -19
29 -35 37 -40 21 -23 41 20 26 31 -11 36 -3 19 26 -5 6 -4 12 2 12 5 0 14 -7
19 -16 8 -15 10 -15 15 0 4 10 3 15 -3 11 -6 -3 -10 -2 -10 3 0 17 13 22 27
10 11 -9 12 -7 7 7 -5 12 -4 16 3 12 6 -4 14 0 17 9 7 20 40 14 44 -7z m-198
-103 c0 11 41 -28 52 -50 7 -12 7 -16 0 -12 -6 3 -13 2 -17 -4 -7 -12 -26 -14
-23 -2 1 4 -20 29 -47 55 -39 39 -46 50 -34 58 10 6 21 1 42 -21 15 -17 27
-27 27 -24z m-110 25 c0 -5 20 -28 45 -52 60 -58 58 -69 -11 -69 -54 0 -56 1
-52 24 5 25 -33 82 -46 69 -3 -3 -6 -1 -6 6 0 8 -7 11 -17 6 -12 -4 -15 -3 -8
4 9 8 29 13 83 20 6 0 12 -3 12 -8z m-1748 -82 c79 -27 88 -35 55 -50 -22 -10
-38 -8 -96 11 -38 12 -76 20 -83 18 -7 -3 3 -8 22 -12 45 -9 110 -37 110 -47
0 -16 -18 -18 -61 -5 -68 21 -133 30 -125 18 3 -6 38 -16 76 -23 39 -7 70 -16
70 -20 0 -18 -36 -17 -103 1 -80 22 -101 25 -92 10 3 -5 22 -12 43 -15 20 -4
52 -11 71 -17 34 -10 34 -11 11 -23 -16 -8 -37 -9 -73 -3 -51 10 -117 4 -117
-10 0 -4 32 -6 71 -4 42 3 75 0 81 -6 15 -15 -13 -20 -137 -26 l-100 -5 41 37
c139 125 198 178 208 184 20 13 64 9 128 -13z m1473 -119 c4 -6 10 -8 14 -6 4
3 14 -6 21 -19 21 -39 0 -75 -43 -75 -43 0 -89 34 -85 64 2 11 8 21 15 21 7 0
18 6 25 13 15 15 44 16 53 2z m-1349 -60 c-3 -27 -9 -72 -12 -99 -4 -37 -12
-53 -33 -68 -30 -23 -102 -60 -185 -97 l-56 -25 6 42 c12 91 26 127 55 143 35
17 36 11 14 -61 -14 -49 -12 -72 5 -45 5 8 14 42 21 77 14 72 39 106 39 55 0
-17 -9 -54 -20 -82 -16 -39 -17 -50 -6 -50 13 0 40 91 48 159 4 36 28 39 28 4
0 -29 -12 -85 -25 -115 -4 -11 -3 -18 4 -18 12 0 31 63 40 134 3 29 12 51 20
54 11 4 12 -6 6 -54 -4 -33 -11 -67 -16 -76 -5 -9 -9 -25 -9 -35 1 -17 1 -17
14 0 16 20 39 134 35 163 -4 22 8 44 23 44 6 0 8 -18 4 -50z m1039 -81 c-7
-21 -63 -78 -77 -79 -12 0 -9 48 2 55 6 4 8 10 5 15 -3 5 8 17 25 26 16 10 30
23 30 29 0 5 5 2 11 -8 6 -9 7 -27 4 -38z m-115 -71 c0 -18 -2 -20 -9 -8 -6 8
-7 18 -5 22 9 14 14 9 14 -14z m116 15 c-4 -4 8 -15 26 -25 21 -11 27 -17 16
-18 -21 0 -22 -8 -8 -44 7 -21 6 -26 -5 -26 -8 0 -15 -5 -15 -11 0 -5 -4 -7
-10 -4 -5 3 -10 1 -10 -6 0 -7 -3 -9 -6 -6 -4 3 -15 -5 -26 -18 -17 -23 -46
-27 -33 -5 3 5 1 11 -4 14 -11 7 -13 86 -1 86 5 0 12 9 15 21 4 11 9 18 13 15
3 -3 11 3 19 14 8 11 19 20 25 20 6 0 8 -3 4 -7z m-130 -30 c7 -10 14 -37 14
-60 0 -37 -3 -43 -21 -43 -11 0 -29 -5 -39 -10 -16 -9 -20 -7 -24 12 -9 40 -2
67 24 92 30 30 30 30 46 9z m184 -114 c0 -6 -6 -7 -12 -3 -7 4 -5 -2 5 -13 23
-27 19 -61 -11 -81 -18 -12 -22 -12 -19 -1 2 8 -3 -1 -11 -18 -20 -44 -35 -41
-50 10 l-14 42 39 32 c21 18 43 36 48 42 11 10 25 5 25 -10z m97 8 c19 0 56
-44 48 -57 -5 -8 -15 -4 -34 13 -27 25 -59 42 -74 38 -5 -1 -6 3 -2 9 4 6 16
8 28 4 12 -4 28 -7 34 -7z m-299 -58 c3 -41 -5 -51 -29 -39 -11 6 -19 21 -19
36 0 14 4 23 9 19 5 -3 12 -1 16 5 11 19 21 10 23 -21z m47 -14 c2 -19 8 -41
14 -49 12 -14 5 -26 -14 -26 -14 0 -18 23 -14 88 3 41 11 33 14 -13z m230 4
c-3 -5 1 -6 9 -3 15 6 34 -21 41 -57 4 -20 -9 -26 -20 -9 -3 6 -2 10 4 10 6 0
8 7 4 16 -4 12 -8 13 -14 3 -6 -10 -12 -10 -27 4 -10 9 -21 14 -25 11 -8 -8
-3 18 6 34 5 7 13 10 18 6 5 -3 7 -10 4 -15z m-59 -114 c-4 -36 -3 -65 1 -65
13 0 30 33 27 53 -1 9 2 15 7 11 13 -8 11 10 -2 23 -6 6 -8 16 -5 22 8 12 36
3 36 -11 0 -6 -8 -4 -17 3 -16 13 -17 12 -4 -3 7 -10 17 -16 21 -13 5 3 12 0
15 -6 4 -6 -2 -13 -14 -16 -25 -6 -27 -20 -5 -44 15 -17 15 -21 -5 -51 -11
-18 -21 -28 -22 -23 0 6 -4 -1 -8 -14 -7 -24 -7 -24 -31 15 -13 21 -23 42 -22
46 1 4 -6 4 -16 1 -9 -3 -14 -3 -10 1 3 4 -2 16 -13 27 -16 16 -17 23 -8 41 9
17 13 18 21 7 7 -11 8 -9 4 5 -7 21 19 56 42 56 12 0 14 -11 8 -65z m-218 30
c2 -28 -13 -34 -22 -8 -5 13 1 24 19 33 0 0 2 -11 3 -25z"/>
<path d="M1022 2941 c-11 -7 -11 -9 0 -14 9 -3 15 1 15 9 0 8 -1 14 -1 14 -1
0 -7 -4 -14 -9z"/>
<path d="M877 2554 c-8 -8 1 -24 14 -24 5 0 9 7 9 15 0 15 -12 20 -23 9z"/>
<path d="M1196 2331 c-16 -3 -31 -12 -34 -20 -4 -11 4 -13 36 -7 47 7 40 20
62 -131 15 -108 13 -132 -12 -153 -29 -23 -19 -34 18 -19 16 7 45 15 64 18 47
8 49 37 3 33 -32 -3 -33 -2 -33 32 0 19 -3 41 -6 49 -9 25 75 33 117 13 41
-20 89 -81 89 -113 0 -18 -5 -23 -25 -23 -14 0 -25 -4 -25 -10 0 -8 34 -17 89
-23 30 -3 39 19 11 26 -15 4 -20 13 -20 38 0 25 -11 43 -52 84 -29 29 -59 54
-66 56 -16 5 103 129 123 129 20 0 19 16 -1 24 -20 8 -98 8 -118 0 -9 -3 -16
-12 -16 -19 0 -10 11 -12 42 -8 l41 6 -19 -27 c-25 -34 -115 -95 -152 -102
l-30 -6 -7 62 c-5 41 -3 66 4 73 6 6 11 15 11 19 0 9 -51 9 -94 -1z"/>
<path d="M1720 2260 c-8 -5 -16 -20 -16 -32 -2 -31 -40 -208 -49 -230 -4 -10
-16 -18 -26 -18 -10 0 -19 -6 -19 -14 0 -11 53 -26 97 -27 18 -1 12 20 -7 26
-15 5 -19 12 -14 23 4 10 9 30 12 45 4 24 8 28 26 23 11 -3 26 -6 32 -6 14 0
44 -65 44 -95 0 -20 -5 -25 -26 -25 -35 0 -22 -15 36 -45 35 -18 51 -21 56
-13 4 6 -2 19 -14 29 -13 10 -22 29 -22 46 -1 15 -7 45 -14 65 -12 35 -12 37
9 42 13 3 37 22 54 42 27 30 31 41 25 68 -9 43 -9 43 -74 76 -63 32 -85 36
-110 20z m133 -68 c47 -42 -1 -112 -77 -112 -65 0 -70 7 -55 76 20 96 22 98
72 73 23 -12 50 -28 60 -37z"/>
<path d="M1057 2134 c-12 -12 -8 -52 6 -57 6 -2 22 -1 34 4 19 7 21 12 14 31
-8 23 -40 36 -54 22z"/>
<path d="M2036 2111 c-3 -5 0 -14 8 -20 11 -10 7 -32 -28 -134 -29 -85 -47
-123 -59 -125 -27 -5 -20 -20 21 -45 73 -47 124 -69 146 -63 20 5 46 42 46 66
0 20 -27 9 -38 -15 -6 -14 -16 -25 -22 -25 -20 0 -110 54 -110 66 0 15 57 183
70 206 6 10 10 25 10 34 0 11 5 14 18 9 34 -14 52 -17 52 -8 0 13 -108 64
-114 54z"/>
<path d="M2354 1939 c-4 -7 3 -19 15 -28 15 -11 24 -34 31 -76 13 -77 14 -73
-12 -81 -13 -3 -43 -20 -68 -37 -25 -16 -62 -32 -82 -35 -49 -6 -48 -22 1 -46
42 -20 78 -13 47 10 -15 11 -11 15 37 43 80 45 98 45 113 -4 7 -22 13 -55 13
-73 1 -29 -2 -33 -21 -30 -41 6 -30 -21 14 -32 24 -7 48 -16 55 -21 7 -7 14
-6 18 2 7 10 -5 23 -27 31 -5 2 -12 35 -18 73 -5 39 -11 78 -12 89 -2 14 7 21
39 31 23 7 62 24 87 39 26 15 51 23 61 20 13 -5 16 -2 13 12 -2 12 -20 23 -50
33 -52 16 -72 9 -42 -14 19 -15 19 -15 -1 -27 -15 -9 -99 -42 -121 -48 -3 0
-24 90 -24 103 0 10 8 13 25 9 42 -8 28 16 -25 43 -57 29 -57 29 -66 14z"/>
<path d="M2737 1695 c-27 -26 2 -62 39 -48 20 7 15 57 -7 61 -9 2 -24 -4 -32
-13z"/>
<path d="M3069 1733 c-13 -16 -12 -17 4 -4 16 13 21 21 13 21 -2 0 -10 -8 -17
-17z"/>
<path d="M3197 1704 c-3 -5 1 -15 9 -22 16 -14 18 -5 5 17 -5 7 -11 9 -14 5z"/>
<path d="M3056 1571 c-3 -5 1 -11 9 -14 9 -4 12 -1 8 9 -6 16 -10 17 -17 5z"/>
<path d="M2971 1557 c-8 -10 -7 -14 2 -14 8 0 14 6 14 14 0 7 -1 13 -2 13 -2
0 -8 -6 -14 -13z"/>
<path d="M2696 1333 c-12 -12 -6 -33 9 -33 8 0 15 6 15 14 0 17 -14 28 -24 19z"/>
<path d="M2356 1222 c6 -4 10 -15 8 -25 -2 -15 0 -16 12 -6 11 9 12 15 3 25
-6 8 -17 14 -23 14 -8 0 -8 -2 0 -8z"/>
<path d="M2388 973 c7 -3 16 -2 19 1 4 3 -2 6 -13 5 -11 0 -14 -3 -6 -6z"/>
<path d="M2580 1006 c0 -2 8 -10 18 -17 15 -13 16 -12 3 4 -13 16 -21 21 -21
13z"/>
<path d="M2453 845 c0 -8 4 -12 9 -9 5 3 6 10 3 15 -9 13 -12 11 -12 -6z"/>
<path d="M2510 785 c0 -2 6 -8 13 -14 10 -8 14 -7 14 2 0 8 -6 14 -14 14 -7 0
-13 -1 -13 -2z"/>
<path d="M905 3069 c-4 -6 -5 -12 -2 -15 2 -3 7 2 10 11 7 17 1 20 -8 4z"/>
<path d="M935 3070 c-3 -6 1 -7 9 -4 18 7 21 14 7 14 -6 0 -13 -4 -16 -10z"/>
<path d="M679 2263 c-12 -16 -12 -17 2 -6 9 7 20 9 24 5 5 -4 5 -1 1 6 -9 16
-11 15 -27 -5z"/>
</g>
</svg>
